<svg width="83" height="29" viewBox="0 0 83 29" fill="none" xmlns="http://www.w3.org/2000/svg">
<path d="M76.5299 1.35983H6.80994C3.77237 1.35983 1.30994 3.82227 1.30994 6.85983V22.3098C1.30994 25.3474 3.77237 27.8098 6.80994 27.8098H76.5299C79.5675 27.8098 82.0299 25.3474 82.0299 22.3098V6.85983C82.0299 3.82227 79.5675 1.35983 76.5299 1.35983Z" fill="white"/>
<path d="M76.5299 1.35983H6.80994C3.77237 1.35983 1.30994 3.82227 1.30994 6.85983V22.3098C1.30994 25.3474 3.77237 27.8098 6.80994 27.8098H76.5299C79.5675 27.8098 82.0299 25.3474 82.0299 22.3098V6.85983C82.0299 3.82227 79.5675 1.35983 76.5299 1.35983Z" stroke="#010101"/>
<path d="M17.7199 15.0999C17.7199 14.4799 17.8998 13.8599 18.2098 13.3199C18.5298 12.7799 18.9799 12.3199 19.5199 11.9899C19.1699 11.5099 18.7198 11.1098 18.1898 10.8298C17.6598 10.5498 17.0699 10.3899 16.4699 10.3799C15.1799 10.2499 13.9399 11.1299 13.2799 11.1299C12.6199 11.1299 11.5999 10.3899 10.5199 10.4099C9.81991 10.4299 9.12992 10.6299 8.52992 10.9899C7.92992 11.3499 7.42985 11.8499 7.08985 12.4499C5.60985 14.9499 6.70989 18.6299 8.12989 20.6599C8.83989 21.6499 9.66989 22.7599 10.7499 22.7199C11.8099 22.6799 12.2099 22.0599 13.4899 22.0599C14.7699 22.0599 15.1299 22.7199 16.2399 22.6999C17.3799 22.6799 18.0999 21.6999 18.7799 20.6999C19.2899 19.9899 19.6798 19.2099 19.9398 18.3899C19.2798 18.1199 18.7098 17.6599 18.3198 17.0699C17.9198 16.4899 17.7098 15.7999 17.7098 15.0999H17.7199Z" fill="#010101"/>
<path d="M15.6299 9.04984C16.2499 8.31984 16.5599 7.38985 16.4799 6.43985C15.5299 6.53985 14.65 6.97984 14.02 7.67984C13.71 8.01984 13.4799 8.41985 13.3299 8.84985C13.1799 9.27985 13.12 9.73985 13.15 10.1898C13.62 10.1898 14.09 10.0898 14.52 9.89984C14.95 9.69984 15.3299 9.40984 15.6199 9.04984H15.6299Z" fill="#010101"/>
<path d="M25.9199 6.77985H27.3198C28.5298 6.77985 29.1199 7.49985 29.1199 8.80984C29.1199 10.1198 28.5198 10.8499 27.3198 10.8499H25.9199V6.77985ZM26.5999 7.34985V10.2798H27.2499C28.0499 10.2798 28.4299 9.78985 28.4299 8.81985C28.4299 7.84985 28.0499 7.34985 27.2499 7.34985H26.5999ZM31.2699 7.64984C32.0899 7.64984 32.6699 8.17985 32.6699 9.06985V9.47986C32.6699 10.3999 32.0899 10.9099 31.2699 10.9099C30.4499 10.9099 29.8699 10.3999 29.8699 9.47986V9.06985C29.8699 8.20985 30.4499 7.64984 31.2699 7.64984ZM31.2699 8.17984C30.7999 8.17984 30.5299 8.56985 30.5299 9.09985V9.44986C30.5299 9.97986 30.7799 10.3698 31.2699 10.3698C31.7599 10.3698 31.9999 9.97986 31.9999 9.44986V9.09985C31.9999 8.56985 31.7399 8.17984 31.2699 8.17984ZM37.5299 7.69986L36.6998 10.8499H36.0299L35.3699 8.52985H35.3499L34.6998 10.8499H34.0199L33.1599 7.69986H33.8699L34.3799 10.0999H34.4099L35.0399 7.69986H35.6599L36.3099 10.0999H36.3398L36.8599 7.69986H37.5199H37.5299ZM38.1799 10.8499V7.69986H38.8298V8.26984H38.8599C38.9399 8.01984 39.1699 7.65985 39.8099 7.65985C40.4499 7.65985 40.8699 8.00986 40.8699 8.72986V10.8598H40.2098V8.92984C40.2098 8.44984 39.9598 8.22986 39.5898 8.22986C39.0998 8.22986 38.8398 8.60984 38.8398 9.11984V10.8698H38.1799V10.8499ZM41.8699 10.8499V6.56985H42.5299V10.8499H41.8699ZM44.8099 7.64984C45.6299 7.64984 46.2098 8.17985 46.2098 9.06985V9.47986C46.2098 10.3999 45.6299 10.9099 44.8099 10.9099C43.9899 10.9099 43.4099 10.3999 43.4099 9.47986V9.06985C43.4099 8.20985 43.9899 7.64984 44.8099 7.64984ZM44.8099 8.17984C44.3399 8.17984 44.0698 8.56985 44.0698 9.09985V9.44986C44.0698 9.97986 44.3199 10.3698 44.8099 10.3698C45.2999 10.3698 45.5399 9.97986 45.5399 9.44986V9.09985C45.5399 8.56985 45.2799 8.17984 44.8099 8.17984ZM47.9199 10.8998C47.3099 10.8998 46.8899 10.5198 46.8899 9.93985C46.8899 9.35985 47.2799 9.00986 47.9999 9.00986H48.7999V8.70984C48.7999 8.34984 48.5698 8.17984 48.2098 8.17984C47.8498 8.17984 47.6899 8.32986 47.6399 8.53986H47.0099C47.0499 8.00986 47.4499 7.65985 48.2299 7.65985C48.8999 7.65985 49.4598 7.93985 49.4598 8.71985V10.8499H48.8298V10.4398H48.7999C48.6599 10.6798 48.3899 10.8998 47.9199 10.8998ZM48.1299 10.3899C48.5099 10.3899 48.7999 10.1299 48.7999 9.78986V9.44986H48.1099C47.7299 9.44986 47.5599 9.63985 47.5599 9.90985C47.5599 10.2399 47.8299 10.3899 48.1299 10.3899ZM51.4999 7.65985C51.9399 7.65985 52.2799 7.85984 52.4099 8.17984H52.4398V6.56985H53.0999V10.8499H52.4598V10.3499H52.4299C52.3299 10.6699 51.9599 10.8998 51.4999 10.8998C50.7799 10.8998 50.2999 10.3798 50.2999 9.54984V9.00986C50.2999 8.17986 50.7799 7.65985 51.4999 7.65985ZM51.6799 8.19986C51.2399 8.19986 50.9598 8.52985 50.9598 9.09985V9.44986C50.9598 10.0299 51.2398 10.3499 51.6898 10.3499C52.1398 10.3499 52.4299 10.0298 52.4299 9.48984V9.00986C52.4299 8.51986 52.1099 8.19986 51.6799 8.19986ZM56.7299 7.64984C57.5499 7.64984 58.1299 8.17985 58.1299 9.06985V9.47986C58.1299 10.3999 57.5499 10.9099 56.7299 10.9099C55.9099 10.9099 55.3298 10.3999 55.3298 9.47986V9.06985C55.3298 8.20985 55.9099 7.64984 56.7299 7.64984ZM56.7299 8.17984C56.2599 8.17984 55.9899 8.56985 55.9899 9.09985V9.44986C55.9899 9.97986 56.2399 10.3698 56.7299 10.3698C57.2199 10.3698 57.4598 9.97986 57.4598 9.44986V9.09985C57.4598 8.56985 57.1999 8.17984 56.7299 8.17984ZM58.9799 10.8499V7.69986H59.6299V8.26984H59.6599C59.7399 8.01984 59.9699 7.65985 60.6099 7.65985C61.2499 7.65985 61.6699 8.00986 61.6699 8.72986V10.8598H61.0099V8.92984C61.0099 8.44984 60.7599 8.22986 60.3899 8.22986C59.8999 8.22986 59.6399 8.60984 59.6399 9.11984V10.8698H58.9799V10.8499ZM64.2299 7.71985V6.92984H64.8799V7.71985H65.5898V8.23984H64.8799V9.90985C64.8799 10.2499 65.0099 10.3499 65.3599 10.3499C65.4499 10.3499 65.5699 10.3498 65.6199 10.3398V10.8499C65.5699 10.8499 65.3498 10.8799 65.1998 10.8799C64.4298 10.8799 64.2299 10.6098 64.2299 9.96985V8.23984H63.7499V7.71985H64.2399H64.2299ZM66.4199 10.8499V6.56985H67.0798V8.26984H67.1099C67.1799 8.04984 67.4298 7.65985 68.0698 7.65985C68.7098 7.65985 69.1199 8.00986 69.1199 8.72986V10.8598H68.4598V8.92984C68.4598 8.44984 68.1898 8.22986 67.8198 8.22986C67.3498 8.22986 67.0798 8.59984 67.0798 9.11984V10.8698H66.4199V10.8499ZM71.3398 10.9099C70.4798 10.9099 69.9498 10.3798 69.9498 9.48984V9.05984C69.9498 8.16984 70.5299 7.63986 71.2999 7.63986C72.0699 7.63986 72.6499 8.18984 72.6499 9.05984V9.42984H70.5999V9.57983C70.5999 10.0298 70.8698 10.3698 71.3298 10.3698C71.6798 10.3698 71.9098 10.2099 71.9598 10.0099H72.6099C72.5699 10.3699 72.1898 10.8998 71.3398 10.8998V10.9099ZM70.6099 8.99985H72.0099V8.95984C72.0099 8.48984 71.7299 8.16986 71.3099 8.16986C70.8899 8.16986 70.6099 8.48984 70.6099 8.95984V8.99985Z" fill="#010101"/>
<path d="M26.8799 21.6999H25.4999L28.2999 13.5598H29.8099L32.6099 21.6999H31.1799L30.4598 19.4499H27.5999L26.8699 21.6999H26.8799ZM29.0698 14.9698H29.0199L27.9199 18.4099H30.1699L29.0798 14.9698H29.0698ZM36.4199 21.7899C35.5999 21.7899 34.9799 21.3999 34.6499 20.8199H34.5999V23.7899H33.2799V15.3998H34.5698V16.3199H34.6199C34.9699 15.7199 35.6098 15.3098 36.4598 15.3098C37.8698 15.3098 38.8799 16.3799 38.8799 18.2599V18.8199C38.8799 20.6899 37.8799 21.7798 36.4299 21.7798L36.4199 21.7899ZM36.1099 20.6999C36.9499 20.6999 37.5199 20.0299 37.5199 18.7599V18.3199C37.5199 17.0999 36.9798 16.3998 36.0798 16.3998C35.1798 16.3998 34.5798 17.1498 34.5798 18.3098V18.7599C34.5798 19.9499 35.1599 20.6999 36.1099 20.6999ZM43.1399 21.7899C42.3199 21.7899 41.6999 21.3999 41.3699 20.8199H41.3198V23.7899H39.9999V15.3998H41.2899V16.3199H41.3398C41.6898 15.7199 42.3299 15.3098 43.1799 15.3098C44.5899 15.3098 45.5999 16.3799 45.5999 18.2599V18.8199C45.5999 20.6899 44.5999 21.7798 43.1499 21.7798L43.1399 21.7899ZM42.8398 20.6999C43.6798 20.6999 44.2499 20.0299 44.2499 18.7599V18.3199C44.2499 17.0999 43.7099 16.3998 42.8099 16.3998C41.9099 16.3998 41.3099 17.1498 41.3099 18.3098V18.7599C41.3099 19.9499 41.8898 20.6999 42.8398 20.6999ZM48.3398 19.4499H49.6599C49.7199 20.1499 50.3399 20.7599 51.4899 20.7599C52.5499 20.7599 53.1699 20.2698 53.1699 19.4998C53.1699 18.8798 52.7499 18.5498 51.8799 18.3398L50.5399 18.0099C49.4899 17.7699 48.5499 17.1399 48.5499 15.8199C48.5499 14.2599 49.9099 13.4099 51.4899 13.4099C53.0699 13.4099 54.3899 14.2598 54.4199 15.7798H53.1199C53.0599 15.0898 52.5298 14.5198 51.4698 14.5198C50.5398 14.5198 49.9099 14.9598 49.9099 15.7198C49.9099 16.2498 50.2799 16.6298 51.0399 16.7998L52.3699 17.1299C53.5899 17.4299 54.5199 18.0099 54.5199 19.3899C54.5199 20.9899 53.2299 21.8899 51.3799 21.8899C49.1099 21.8899 48.3598 20.5698 48.3298 19.4698L48.3398 19.4499ZM56.1399 15.3998V13.8698H57.4398V15.3998H58.6699V16.4598H57.4398V19.8199C57.4398 20.5099 57.6999 20.6999 58.4099 20.6999C58.5199 20.6999 58.6298 20.6999 58.7098 20.6898V21.6999C58.5998 21.7199 58.3498 21.7398 58.0798 21.7398C56.5498 21.7398 56.1199 21.1898 56.1199 19.9298V16.4598H55.2499V15.3998H56.1399ZM62.2399 15.2998C64.0499 15.2998 65.0399 16.5799 65.0399 18.2899V18.7998C65.0399 20.5798 64.0599 21.8199 62.2399 21.8199C60.4199 21.8199 59.4299 20.5798 59.4299 18.7998V18.2899C59.4299 16.5799 60.4299 15.2998 62.2399 15.2998ZM62.2399 16.3598C61.2599 16.3598 60.7699 17.1598 60.7699 18.3098V18.7899C60.7699 19.9199 61.2499 20.7498 62.2399 20.7498C63.2299 20.7498 63.7098 19.9299 63.7098 18.7899V18.3098C63.7098 17.1598 63.2299 16.3598 62.2399 16.3598ZM66.1499 21.6999V15.3998H67.4698V16.2299H67.5199C67.6799 15.8399 68.1499 15.3098 69.0299 15.3098C69.1999 15.3098 69.3499 15.3199 69.4799 15.3499V16.5198C69.3699 16.4898 69.1299 16.4698 68.9099 16.4698C67.8499 16.4698 67.4899 17.1298 67.4899 17.9698V21.6999H66.1499ZM72.6898 21.8098C70.9998 21.8098 69.9299 20.6998 69.9299 18.8298V18.1898C69.9299 16.4298 70.9799 15.2899 72.6399 15.2899C74.2999 15.2899 75.3298 16.4698 75.3298 18.2498V18.8499H71.2299V18.9998C71.2299 20.0598 71.7998 20.7599 72.6998 20.7599C73.3698 20.7599 73.8299 20.4299 73.9899 19.8799H75.2499C75.0599 20.8999 74.2399 21.7998 72.6799 21.7998L72.6898 21.8098ZM71.2399 17.9298H74.0399C74.0399 17.0198 73.4899 16.3199 72.6499 16.3199C71.8099 16.3199 71.2399 17.0199 71.2399 17.9199V17.9298Z" fill="#010101"/>
</svg>
