<svg width="83" height="29" viewBox="0 0 83 29" fill="none" xmlns="http://www.w3.org/2000/svg">
<path d="M76.0898 1.35983H6.36987C3.33231 1.35983 0.869873 3.82227 0.869873 6.85983V22.3098C0.869873 25.3474 3.33231 27.8098 6.36987 27.8098H76.0898C79.1274 27.8098 81.5898 25.3474 81.5898 22.3098V6.85983C81.5898 3.82227 79.1274 1.35983 76.0898 1.35983Z" fill="white"/>
<path d="M76.0898 1.35983H6.36987C3.33231 1.35983 0.869873 3.82227 0.869873 6.85983V22.3098C0.869873 25.3474 3.33231 27.8098 6.36987 27.8098H76.0898C79.1274 27.8098 81.5898 25.3474 81.5898 22.3098V6.85983C81.5898 3.82227 79.1274 1.35983 76.0898 1.35983Z" stroke="#010101"/>
<path d="M12.6099 14.2198L6.0199 21.3698C6.2199 22.1498 6.91987 22.7198 7.73987 22.7198C8.06987 22.7198 8.37989 22.6298 8.63989 22.4698H8.65991L16.0798 18.0798L12.6099 14.2198Z" fill="#EA4535"/>
<path d="M19.2699 12.9998L16.0698 11.0999L12.4598 14.3799L16.0798 18.0798L19.2699 16.1999C19.8299 15.8899 20.2098 15.2899 20.2098 14.5999C20.2098 13.9099 19.8399 13.3098 19.2799 12.9998H19.2699Z" fill="#F9BC15"/>
<path d="M6.0199 7.79984C5.9799 7.94984 5.95984 8.10984 5.95984 8.26984V20.9099C5.95984 21.0699 5.9799 21.2299 6.0199 21.3799L12.8398 14.4099L6.0199 7.79984Z" fill="#557EBF"/>
<path d="M12.6499 14.5798L16.0599 11.0898L8.6499 6.69986C8.3799 6.52986 8.06986 6.43985 7.72986 6.43985C6.90986 6.43985 6.20989 7.00986 6.00989 7.78986L12.6499 14.5798Z" fill="#36A852"/>
<path d="M30.1099 8.95984C30.1099 9.63984 29.9099 10.1798 29.5099 10.5798C29.0599 11.0598 28.4599 11.2998 27.7299 11.2998C26.9999 11.2998 26.4298 11.0599 25.9398 10.5699C25.4498 10.0799 25.2098 9.47984 25.2098 8.76984C25.2098 8.05984 25.4498 7.44985 25.9398 6.96985C26.4298 6.47985 27.0299 6.23984 27.7299 6.23984C28.0899 6.23984 28.4199 6.29984 28.7399 6.42984C29.0599 6.55984 29.3199 6.73985 29.5199 6.96985L29.0698 7.41986C28.9198 7.23986 28.7299 7.09985 28.4899 6.99985C28.2499 6.89985 27.9999 6.83984 27.7299 6.83984C27.1999 6.83984 26.7499 7.01986 26.3899 7.38986C26.0299 7.75986 25.8499 8.21985 25.8499 8.77985C25.8499 9.33985 26.0299 9.79986 26.3899 10.1699C26.7599 10.5399 27.1999 10.7198 27.7299 10.7198C28.2099 10.7198 28.6198 10.5798 28.9398 10.3098C29.2598 10.0398 29.4499 9.66985 29.4999 9.18985H27.7399V8.60983H30.0898C30.1098 8.73983 30.1199 8.85986 30.1199 8.97986L30.1099 8.95984ZM33.6998 6.32983V6.92984H31.4899V8.46985H33.4799V9.04984H31.4899V10.5898H33.6998V11.1898H30.8599V6.32983H33.6998ZM36.1998 6.92984V11.1898H35.5798V6.92984H34.2198V6.32983H37.5599V6.92984H36.1998ZM40.3198 11.1898H39.6998V6.32983H40.3198V11.1898ZM42.9498 6.92984V11.1898H42.3298V6.92984H40.9698V6.32983H44.3099V6.92984H42.9498ZM51.0798 8.75986C51.0798 9.47986 50.8399 10.0798 50.3599 10.5598C49.8799 11.0498 49.2798 11.2899 48.5798 11.2899C47.8798 11.2899 47.2799 11.0498 46.7999 10.5598C46.3199 10.0798 46.0798 9.46986 46.0798 8.75986C46.0798 8.04986 46.3199 7.43984 46.7999 6.95984C47.2799 6.46984 47.8698 6.22986 48.5798 6.22986C49.2898 6.22986 49.8799 6.47985 50.3599 6.96985C50.8399 7.44985 51.0798 8.04984 51.0798 8.76984V8.75986ZM46.7198 8.75986C46.7198 9.31986 46.8999 9.77984 47.2499 10.1498C47.6099 10.5198 48.0498 10.6999 48.5798 10.6999C49.1098 10.6999 49.5499 10.5198 49.8999 10.1498C50.2599 9.78984 50.4398 9.31986 50.4398 8.75986C50.4398 8.19986 50.2599 7.72984 49.8999 7.36984C49.5499 6.99984 49.1098 6.81985 48.5798 6.81985C48.0498 6.81985 47.6099 6.99984 47.2499 7.36984C46.8999 7.73984 46.7198 8.19986 46.7198 8.75986ZM52.4398 11.1898H51.8198V6.32983H52.5798L54.9398 10.1098H54.9698L54.9398 9.16986V6.32983H55.5599V11.1898H54.9099L52.4398 7.22986H52.4099L52.4398 8.16986V11.1999V11.1898Z" fill="#010101"/>
<path d="M63.9598 22.3199H65.0599V14.8499H63.9598V22.3199ZM73.9099 17.5399L72.6399 20.7798H72.5999L71.2899 17.5399H70.0999L72.0698 22.0699L70.9498 24.5898H72.0999L75.1399 17.5498H73.9099V17.5399ZM67.6499 21.4698C67.2899 21.4698 66.7799 21.2898 66.7799 20.8398C66.7799 20.2598 67.4098 20.0399 67.9498 20.0399C68.4398 20.0399 68.6598 20.1499 68.9598 20.2899C68.8698 20.9799 68.2799 21.4698 67.6499 21.4698ZM67.7799 17.3799C66.9799 17.3799 66.1499 17.7398 65.8099 18.5198L66.7899 18.9298C66.9999 18.5198 67.3899 18.3799 67.7999 18.3799C68.3699 18.3799 68.9498 18.7298 68.9598 19.3398V19.4199C68.7598 19.2999 68.3299 19.1299 67.8099 19.1299C66.7499 19.1299 65.6799 19.7198 65.6799 20.8098C65.6799 21.8098 66.5499 22.4499 67.5199 22.4499C68.2599 22.4499 68.6699 22.1098 68.9299 21.7198H68.9698V22.2998H70.0399V19.4398C70.0399 18.1098 69.0599 17.3698 67.7899 17.3698L67.7799 17.3799ZM60.9498 18.4499H59.3799V15.8899H60.9498C61.7798 15.8899 62.2399 16.5799 62.2399 17.1699C62.2399 17.7599 61.7698 18.4499 60.9498 18.4499ZM60.9199 14.8499H58.2699V22.3199H59.3699V19.4898H60.9099C62.1299 19.4898 63.3398 18.5899 63.3398 17.1699C63.3398 15.7499 62.1399 14.8499 60.9099 14.8499H60.9199ZM46.4899 21.4698C45.7299 21.4698 45.0898 20.8298 45.0898 19.9398C45.0898 19.0498 45.7299 18.3899 46.4899 18.3899C47.2499 18.3899 47.8298 19.0398 47.8298 19.9398C47.8298 20.8398 47.2399 21.4698 46.4899 21.4698ZM47.7599 17.9598H47.7198C47.4698 17.6598 46.9999 17.3899 46.3899 17.3899C45.1299 17.3899 43.9799 18.5099 43.9799 19.9398C43.9799 21.3698 45.1299 22.4698 46.3899 22.4698C46.9899 22.4698 47.4698 22.1999 47.7198 21.8899H47.7599V22.2599C47.7599 23.2299 47.2399 23.7498 46.4099 23.7498C45.7299 23.7498 45.3099 23.2598 45.1399 22.8398L44.1799 23.2398C44.4599 23.9098 45.1899 24.7398 46.4099 24.7398C47.7099 24.7398 48.7999 23.9698 48.7999 22.0898V17.5298H47.7499V17.9398L47.7599 17.9598ZM49.5698 22.3199H50.6799V14.8499H49.5698V22.3199ZM52.3099 19.8598C52.2799 18.8798 53.0599 18.3799 53.6299 18.3799C54.0699 18.3799 54.4399 18.5999 54.5599 18.9199L52.3099 19.8598ZM55.7399 19.0099C55.5299 18.4399 54.8898 17.3899 53.5798 17.3899C52.2698 17.3899 51.2098 18.4198 51.2098 19.9298C51.2098 21.3498 52.2798 22.4698 53.7098 22.4698C54.8598 22.4698 55.5299 21.7598 55.8099 21.3398L54.9498 20.7599C54.6598 21.1799 54.2698 21.4598 53.7098 21.4598C53.1498 21.4598 52.7499 21.1999 52.4899 20.6898L55.8599 19.2798L55.7499 18.9898L55.7399 19.0099ZM28.9099 18.1699V19.2498H31.4698C31.3898 19.8598 31.1899 20.2998 30.8899 20.6098C30.5199 20.9898 29.9399 21.3998 28.9199 21.3998C27.3499 21.3998 26.1199 20.1198 26.1199 18.5298C26.1199 16.9398 27.3499 15.6599 28.9199 15.6599C29.7699 15.6599 30.3899 15.9998 30.8499 16.4298L31.5999 15.6699C30.9599 15.0499 30.1099 14.5798 28.9199 14.5798C26.7599 14.5798 24.9498 16.3498 24.9498 18.5298C24.9498 20.7098 26.7599 22.4799 28.9199 22.4799C30.0799 22.4799 30.9599 22.0898 31.6499 21.3698C32.3599 20.6598 32.5798 19.6599 32.5798 18.8499C32.5798 18.5999 32.5599 18.3698 32.5199 18.1798H28.9199L28.9099 18.1699ZM35.4698 21.4698C34.7098 21.4698 34.0499 20.8298 34.0499 19.9298C34.0499 19.0298 34.7098 18.3899 35.4698 18.3899C36.2298 18.3899 36.8899 19.0198 36.8899 19.9298C36.8899 20.8398 36.2298 21.4698 35.4698 21.4698ZM35.4698 17.3899C34.0798 17.3899 32.9398 18.4598 32.9398 19.9298C32.9398 21.3998 34.0698 22.4698 35.4698 22.4698C36.8698 22.4698 37.9999 21.3898 37.9999 19.9298C37.9999 18.4698 36.8698 17.3899 35.4698 17.3899ZM40.9899 21.4698C40.2299 21.4698 39.5698 20.8298 39.5698 19.9298C39.5698 19.0298 40.2299 18.3899 40.9899 18.3899C41.7499 18.3899 42.4099 19.0198 42.4099 19.9298C42.4099 20.8398 41.7499 21.4698 40.9899 21.4698ZM40.9899 17.3899C39.5999 17.3899 38.4598 18.4598 38.4598 19.9298C38.4598 21.3998 39.5899 22.4698 40.9899 22.4698C42.3899 22.4698 43.5199 21.3898 43.5199 19.9298C43.5199 18.4698 42.3899 17.3899 40.9899 17.3899Z" fill="#010101"/>
</svg>
